<svg width="99" height="47" viewBox="0 0 99 47" fill="none" xmlns="http://www.w3.org/2000/svg">
<rect x="42.6289" width="13.6646" height="13.6646" rx="6.83229" fill="white"/>
<rect x="42.1338" y="17.5186" width="14.6554" height="28.6667" fill="white"/>
<path d="M18.1923 46.108C20.5814 46.1269 22.9513 45.7364 25.1668 44.959C27.3823 44.1816 29.4 43.0325 31.1047 41.5772C32.8093 40.1219 34.1675 38.3889 35.1018 36.4773C36.0361 34.5657 36.5281 32.5128 36.5498 30.4358C36.5715 28.3589 36.1224 26.2985 35.2281 24.3725C34.3339 22.4464 33.0121 20.6923 31.3381 19.2104C29.6641 17.7285 27.6707 16.5477 25.4718 15.7354C23.2729 14.9232 20.9115 14.4955 18.5224 14.4766L18.4111 25.1378C19.1898 25.144 19.9594 25.2834 20.676 25.5481C21.3927 25.8128 22.0423 26.1976 22.5879 26.6806C23.1335 27.1636 23.5643 27.7353 23.8557 28.363C24.1472 28.9907 24.2935 29.6622 24.2865 30.3391C24.2794 31.016 24.119 31.6851 23.8146 32.3081C23.5101 32.9311 23.0674 33.4959 22.5118 33.9702C21.9563 34.4445 21.2987 34.819 20.5766 35.0724C19.8546 35.3257 19.0822 35.453 18.3036 35.4468L18.1923 46.108Z" fill="white"/>
<path d="M80.8067 46.108C78.4176 46.1269 76.0477 45.7364 73.8322 44.959C71.6167 44.1816 69.599 43.0325 67.8944 41.5772C66.1897 40.1219 64.8315 38.3889 63.8972 36.4773C62.9629 34.5657 62.4709 32.5128 62.4492 30.4358C62.4275 28.3589 62.8766 26.2985 63.7709 24.3725C64.6651 22.4464 65.987 20.6923 67.661 19.2104C69.335 17.7285 71.3283 16.5477 73.5272 15.7354C75.7262 14.9232 78.0876 14.4955 80.4766 14.4766L80.5879 25.1378C79.8093 25.144 79.0397 25.2834 78.323 25.5481C77.6064 25.8128 76.9567 26.1976 76.4111 26.6806C75.8655 27.1636 75.4347 27.7353 75.1433 28.363C74.8519 28.9907 74.7055 29.6622 74.7126 30.3391C74.7196 31.016 74.88 31.6851 75.1845 32.3081C75.489 32.9311 75.9316 33.4959 76.4872 33.9702C77.0428 34.4445 77.7003 34.819 78.4224 35.0724C79.1445 35.3257 79.9168 35.453 80.6955 35.4468L80.8067 46.108Z" fill="white"/>
</svg>
